<mxfile host="65bd71144e" modified="2020-12-16T13:37:59.599Z" agent="5.0 (Macintosh; Intel Mac OS X 10_14_6) AppleWebKit/537.36 (KHTML, like Gecko) Code/1.52.0 Chrome/83.0.4103.122 Electron/9.3.5 Safari/537.36" version="13.10.0" etag="o4GmzkxCWyl6Gh4Eu29U" type="embed">
    <diagram id="-lRhBYK4sDDLhwmyGmRI" name="Page-1">
        <mxGraphModel dx="889" dy="520" grid="1" gridSize="10" guides="1" tooltips="1" connect="1" arrows="1" fold="1" page="1" pageScale="1" pageWidth="827" pageHeight="1169" math="0" shadow="0">
            <root>
                <mxCell id="0"/>
                <mxCell id="1" parent="0"/>
                <mxCell id="2" value="" style="rounded=0;whiteSpace=wrap;html=1;" vertex="1" parent="1">
                    <mxGeometry x="160" y="110" width="400" height="450" as="geometry"/>
                </mxCell>
                <mxCell id="4" value="" style="whiteSpace=wrap;html=1;aspect=fixed;" vertex="1" parent="1">
                    <mxGeometry x="160" y="460" width="50" height="50" as="geometry"/>
                </mxCell>
                <mxCell id="6" value="" style="whiteSpace=wrap;html=1;aspect=fixed;" vertex="1" parent="1">
                    <mxGeometry x="160" y="110" width="50" height="50" as="geometry"/>
                </mxCell>
                <mxCell id="9" value="" style="whiteSpace=wrap;html=1;aspect=fixed;" vertex="1" parent="1">
                    <mxGeometry x="160" y="160" width="50" height="50" as="geometry"/>
                </mxCell>
                <mxCell id="10" value="" style="whiteSpace=wrap;html=1;aspect=fixed;" vertex="1" parent="1">
                    <mxGeometry x="160" y="210" width="50" height="50" as="geometry"/>
                </mxCell>
                <mxCell id="11" value="" style="whiteSpace=wrap;html=1;aspect=fixed;" vertex="1" parent="1">
                    <mxGeometry x="160" y="260" width="50" height="50" as="geometry"/>
                </mxCell>
                <mxCell id="12" value="" style="whiteSpace=wrap;html=1;aspect=fixed;" vertex="1" parent="1">
                    <mxGeometry x="160" y="510" width="50" height="50" as="geometry"/>
                </mxCell>
                <mxCell id="13" value="" style="whiteSpace=wrap;html=1;aspect=fixed;" vertex="1" parent="1">
                    <mxGeometry x="160" y="410" width="50" height="50" as="geometry"/>
                </mxCell>
                <mxCell id="14" value="" style="whiteSpace=wrap;html=1;aspect=fixed;" vertex="1" parent="1">
                    <mxGeometry x="160" y="360" width="50" height="50" as="geometry"/>
                </mxCell>
                <mxCell id="15" value="" style="whiteSpace=wrap;html=1;aspect=fixed;" vertex="1" parent="1">
                    <mxGeometry x="210" y="460" width="50" height="50" as="geometry"/>
                </mxCell>
                <mxCell id="16" value="" style="whiteSpace=wrap;html=1;aspect=fixed;" vertex="1" parent="1">
                    <mxGeometry x="210" y="110" width="50" height="50" as="geometry"/>
                </mxCell>
                <mxCell id="17" value="" style="whiteSpace=wrap;html=1;aspect=fixed;" vertex="1" parent="1">
                    <mxGeometry x="210" y="160" width="50" height="50" as="geometry"/>
                </mxCell>
                <mxCell id="18" value="" style="whiteSpace=wrap;html=1;aspect=fixed;" vertex="1" parent="1">
                    <mxGeometry x="210" y="210" width="50" height="50" as="geometry"/>
                </mxCell>
                <mxCell id="19" value="" style="whiteSpace=wrap;html=1;aspect=fixed;" vertex="1" parent="1">
                    <mxGeometry x="210" y="260" width="50" height="50" as="geometry"/>
                </mxCell>
                <mxCell id="20" value="" style="whiteSpace=wrap;html=1;aspect=fixed;" vertex="1" parent="1">
                    <mxGeometry x="210" y="510" width="50" height="50" as="geometry"/>
                </mxCell>
                <mxCell id="21" value="" style="whiteSpace=wrap;html=1;aspect=fixed;" vertex="1" parent="1">
                    <mxGeometry x="210" y="410" width="50" height="50" as="geometry"/>
                </mxCell>
                <mxCell id="22" value="" style="whiteSpace=wrap;html=1;aspect=fixed;" vertex="1" parent="1">
                    <mxGeometry x="210" y="360" width="50" height="50" as="geometry"/>
                </mxCell>
                <mxCell id="23" value="" style="whiteSpace=wrap;html=1;aspect=fixed;" vertex="1" parent="1">
                    <mxGeometry x="260" y="460" width="50" height="50" as="geometry"/>
                </mxCell>
                <mxCell id="24" value="" style="whiteSpace=wrap;html=1;aspect=fixed;" vertex="1" parent="1">
                    <mxGeometry x="260" y="110" width="50" height="50" as="geometry"/>
                </mxCell>
                <mxCell id="25" value="" style="whiteSpace=wrap;html=1;aspect=fixed;" vertex="1" parent="1">
                    <mxGeometry x="260" y="160" width="50" height="50" as="geometry"/>
                </mxCell>
                <mxCell id="26" value="" style="whiteSpace=wrap;html=1;aspect=fixed;" vertex="1" parent="1">
                    <mxGeometry x="260" y="210" width="50" height="50" as="geometry"/>
                </mxCell>
                <mxCell id="27" value="" style="whiteSpace=wrap;html=1;aspect=fixed;" vertex="1" parent="1">
                    <mxGeometry x="260" y="260" width="50" height="50" as="geometry"/>
                </mxCell>
                <mxCell id="28" value="" style="whiteSpace=wrap;html=1;aspect=fixed;" vertex="1" parent="1">
                    <mxGeometry x="260" y="510" width="50" height="50" as="geometry"/>
                </mxCell>
                <mxCell id="29" value="" style="whiteSpace=wrap;html=1;aspect=fixed;" vertex="1" parent="1">
                    <mxGeometry x="260" y="410" width="50" height="50" as="geometry"/>
                </mxCell>
                <mxCell id="30" value="" style="whiteSpace=wrap;html=1;aspect=fixed;" vertex="1" parent="1">
                    <mxGeometry x="260" y="360" width="50" height="50" as="geometry"/>
                </mxCell>
                <mxCell id="31" value="" style="whiteSpace=wrap;html=1;aspect=fixed;" vertex="1" parent="1">
                    <mxGeometry x="310" y="460" width="50" height="50" as="geometry"/>
                </mxCell>
                <mxCell id="32" value="" style="whiteSpace=wrap;html=1;aspect=fixed;" vertex="1" parent="1">
                    <mxGeometry x="310" y="110" width="50" height="50" as="geometry"/>
                </mxCell>
                <mxCell id="33" value="" style="whiteSpace=wrap;html=1;aspect=fixed;" vertex="1" parent="1">
                    <mxGeometry x="310" y="160" width="50" height="50" as="geometry"/>
                </mxCell>
                <mxCell id="34" value="" style="whiteSpace=wrap;html=1;aspect=fixed;" vertex="1" parent="1">
                    <mxGeometry x="310" y="210" width="50" height="50" as="geometry"/>
                </mxCell>
                <mxCell id="35" value="" style="whiteSpace=wrap;html=1;aspect=fixed;" vertex="1" parent="1">
                    <mxGeometry x="310" y="260" width="50" height="50" as="geometry"/>
                </mxCell>
                <mxCell id="36" value="" style="whiteSpace=wrap;html=1;aspect=fixed;" vertex="1" parent="1">
                    <mxGeometry x="310" y="510" width="50" height="50" as="geometry"/>
                </mxCell>
                <mxCell id="37" value="" style="whiteSpace=wrap;html=1;aspect=fixed;" vertex="1" parent="1">
                    <mxGeometry x="310" y="410" width="50" height="50" as="geometry"/>
                </mxCell>
                <mxCell id="38" value="" style="whiteSpace=wrap;html=1;aspect=fixed;" vertex="1" parent="1">
                    <mxGeometry x="310" y="360" width="50" height="50" as="geometry"/>
                </mxCell>
                <mxCell id="39" value="" style="whiteSpace=wrap;html=1;aspect=fixed;" vertex="1" parent="1">
                    <mxGeometry x="360" y="460" width="50" height="50" as="geometry"/>
                </mxCell>
                <mxCell id="40" value="" style="whiteSpace=wrap;html=1;aspect=fixed;" vertex="1" parent="1">
                    <mxGeometry x="360" y="110" width="50" height="50" as="geometry"/>
                </mxCell>
                <mxCell id="41" value="" style="whiteSpace=wrap;html=1;aspect=fixed;" vertex="1" parent="1">
                    <mxGeometry x="360" y="160" width="50" height="50" as="geometry"/>
                </mxCell>
                <mxCell id="42" value="" style="whiteSpace=wrap;html=1;aspect=fixed;" vertex="1" parent="1">
                    <mxGeometry x="360" y="210" width="50" height="50" as="geometry"/>
                </mxCell>
                <mxCell id="43" value="" style="whiteSpace=wrap;html=1;aspect=fixed;" vertex="1" parent="1">
                    <mxGeometry x="360" y="260" width="50" height="50" as="geometry"/>
                </mxCell>
                <mxCell id="44" value="" style="whiteSpace=wrap;html=1;aspect=fixed;" vertex="1" parent="1">
                    <mxGeometry x="360" y="510" width="50" height="50" as="geometry"/>
                </mxCell>
                <mxCell id="45" value="" style="whiteSpace=wrap;html=1;aspect=fixed;" vertex="1" parent="1">
                    <mxGeometry x="360" y="410" width="50" height="50" as="geometry"/>
                </mxCell>
                <mxCell id="46" value="" style="whiteSpace=wrap;html=1;aspect=fixed;" vertex="1" parent="1">
                    <mxGeometry x="360" y="360" width="50" height="50" as="geometry"/>
                </mxCell>
                <mxCell id="47" value="" style="whiteSpace=wrap;html=1;aspect=fixed;" vertex="1" parent="1">
                    <mxGeometry x="410" y="460" width="50" height="50" as="geometry"/>
                </mxCell>
                <mxCell id="48" value="" style="whiteSpace=wrap;html=1;aspect=fixed;" vertex="1" parent="1">
                    <mxGeometry x="410" y="110" width="50" height="50" as="geometry"/>
                </mxCell>
                <mxCell id="49" value="" style="whiteSpace=wrap;html=1;aspect=fixed;" vertex="1" parent="1">
                    <mxGeometry x="410" y="160" width="50" height="50" as="geometry"/>
                </mxCell>
                <mxCell id="50" value="" style="whiteSpace=wrap;html=1;aspect=fixed;" vertex="1" parent="1">
                    <mxGeometry x="410" y="210" width="50" height="50" as="geometry"/>
                </mxCell>
                <mxCell id="51" value="" style="whiteSpace=wrap;html=1;aspect=fixed;" vertex="1" parent="1">
                    <mxGeometry x="410" y="260" width="50" height="50" as="geometry"/>
                </mxCell>
                <mxCell id="52" value="" style="whiteSpace=wrap;html=1;aspect=fixed;" vertex="1" parent="1">
                    <mxGeometry x="410" y="510" width="50" height="50" as="geometry"/>
                </mxCell>
                <mxCell id="53" value="" style="whiteSpace=wrap;html=1;aspect=fixed;" vertex="1" parent="1">
                    <mxGeometry x="410" y="410" width="50" height="50" as="geometry"/>
                </mxCell>
                <mxCell id="54" value="" style="whiteSpace=wrap;html=1;aspect=fixed;" vertex="1" parent="1">
                    <mxGeometry x="410" y="360" width="50" height="50" as="geometry"/>
                </mxCell>
                <mxCell id="55" value="" style="whiteSpace=wrap;html=1;aspect=fixed;" vertex="1" parent="1">
                    <mxGeometry x="460" y="460" width="50" height="50" as="geometry"/>
                </mxCell>
                <mxCell id="56" value="" style="whiteSpace=wrap;html=1;aspect=fixed;" vertex="1" parent="1">
                    <mxGeometry x="460" y="110" width="50" height="50" as="geometry"/>
                </mxCell>
                <mxCell id="57" value="" style="whiteSpace=wrap;html=1;aspect=fixed;" vertex="1" parent="1">
                    <mxGeometry x="460" y="160" width="50" height="50" as="geometry"/>
                </mxCell>
                <mxCell id="58" value="" style="whiteSpace=wrap;html=1;aspect=fixed;" vertex="1" parent="1">
                    <mxGeometry x="460" y="210" width="50" height="50" as="geometry"/>
                </mxCell>
                <mxCell id="59" value="" style="whiteSpace=wrap;html=1;aspect=fixed;" vertex="1" parent="1">
                    <mxGeometry x="460" y="260" width="50" height="50" as="geometry"/>
                </mxCell>
                <mxCell id="60" value="" style="whiteSpace=wrap;html=1;aspect=fixed;" vertex="1" parent="1">
                    <mxGeometry x="460" y="510" width="50" height="50" as="geometry"/>
                </mxCell>
                <mxCell id="61" value="" style="whiteSpace=wrap;html=1;aspect=fixed;" vertex="1" parent="1">
                    <mxGeometry x="460" y="410" width="50" height="50" as="geometry"/>
                </mxCell>
                <mxCell id="62" value="" style="whiteSpace=wrap;html=1;aspect=fixed;" vertex="1" parent="1">
                    <mxGeometry x="460" y="360" width="50" height="50" as="geometry"/>
                </mxCell>
                <mxCell id="63" value="" style="whiteSpace=wrap;html=1;aspect=fixed;" vertex="1" parent="1">
                    <mxGeometry x="510" y="460" width="50" height="50" as="geometry"/>
                </mxCell>
                <mxCell id="64" value="" style="whiteSpace=wrap;html=1;aspect=fixed;" vertex="1" parent="1">
                    <mxGeometry x="510" y="110" width="50" height="50" as="geometry"/>
                </mxCell>
                <mxCell id="65" value="" style="whiteSpace=wrap;html=1;aspect=fixed;" vertex="1" parent="1">
                    <mxGeometry x="510" y="160" width="50" height="50" as="geometry"/>
                </mxCell>
                <mxCell id="66" value="" style="whiteSpace=wrap;html=1;aspect=fixed;" vertex="1" parent="1">
                    <mxGeometry x="510" y="210" width="50" height="50" as="geometry"/>
                </mxCell>
                <mxCell id="67" value="" style="whiteSpace=wrap;html=1;aspect=fixed;" vertex="1" parent="1">
                    <mxGeometry x="510" y="260" width="50" height="50" as="geometry"/>
                </mxCell>
                <mxCell id="68" value="" style="whiteSpace=wrap;html=1;aspect=fixed;" vertex="1" parent="1">
                    <mxGeometry x="510" y="510" width="50" height="50" as="geometry"/>
                </mxCell>
                <mxCell id="69" value="" style="whiteSpace=wrap;html=1;aspect=fixed;" vertex="1" parent="1">
                    <mxGeometry x="510" y="410" width="50" height="50" as="geometry"/>
                </mxCell>
                <mxCell id="70" value="" style="whiteSpace=wrap;html=1;aspect=fixed;" vertex="1" parent="1">
                    <mxGeometry x="510" y="360" width="50" height="50" as="geometry"/>
                </mxCell>
                <mxCell id="71" value="&lt;font color=&quot;#ff0000&quot;&gt;红方&lt;/font&gt;" style="text;html=1;strokeColor=none;fillColor=none;align=center;verticalAlign=middle;whiteSpace=wrap;rounded=0;" vertex="1" parent="1">
                    <mxGeometry x="580" y="450" width="40" height="20" as="geometry"/>
                </mxCell>
                <mxCell id="74" value="黑方" style="text;html=1;strokeColor=none;fillColor=none;align=center;verticalAlign=middle;whiteSpace=wrap;rounded=0;" vertex="1" parent="1">
                    <mxGeometry x="580" y="200" width="40" height="20" as="geometry"/>
                </mxCell>
                <mxCell id="76" value="4" style="text;html=1;strokeColor=none;fillColor=none;align=center;verticalAlign=middle;whiteSpace=wrap;rounded=0;fontColor=#0000FF;fontStyle=1;fontSize=18;" vertex="1" parent="1">
                    <mxGeometry x="140" y="100" width="40" height="20" as="geometry"/>
                </mxCell>
                <mxCell id="78" value="8" style="text;html=1;strokeColor=none;fillColor=none;align=center;verticalAlign=middle;whiteSpace=wrap;rounded=0;fontColor=#0000FF;fontStyle=1;fontSize=18;" vertex="1" parent="1">
                    <mxGeometry x="190" y="100" width="40" height="20" as="geometry"/>
                </mxCell>
                <mxCell id="79" value="16" style="text;html=1;strokeColor=none;fillColor=none;align=center;verticalAlign=middle;whiteSpace=wrap;rounded=0;fontColor=#0000FF;fontStyle=1;fontSize=18;" vertex="1" parent="1">
                    <mxGeometry x="240" y="100" width="40" height="20" as="geometry"/>
                </mxCell>
                <mxCell id="81" value="12" style="text;html=1;strokeColor=none;fillColor=none;align=center;verticalAlign=middle;whiteSpace=wrap;rounded=0;fontColor=#0000FF;fontStyle=1;fontSize=18;" vertex="1" parent="1">
                    <mxGeometry x="290" y="100" width="40" height="20" as="geometry"/>
                </mxCell>
                <mxCell id="82" value="4" style="text;html=1;strokeColor=none;fillColor=none;align=center;verticalAlign=middle;whiteSpace=wrap;rounded=0;fontColor=#0000FF;fontStyle=1;fontSize=18;" vertex="1" parent="1">
                    <mxGeometry x="340" y="100" width="40" height="20" as="geometry"/>
                </mxCell>
                <mxCell id="83" value="12" style="text;html=1;strokeColor=none;fillColor=none;align=center;verticalAlign=middle;whiteSpace=wrap;rounded=0;fontColor=#0000FF;fontStyle=1;fontSize=18;" vertex="1" parent="1">
                    <mxGeometry x="390" y="100" width="40" height="20" as="geometry"/>
                </mxCell>
                <mxCell id="84" value="16" style="text;html=1;strokeColor=none;fillColor=none;align=center;verticalAlign=middle;whiteSpace=wrap;rounded=0;fontColor=#0000FF;fontStyle=1;fontSize=18;" vertex="1" parent="1">
                    <mxGeometry x="440" y="100" width="40" height="20" as="geometry"/>
                </mxCell>
                <mxCell id="85" value="8" style="text;html=1;strokeColor=none;fillColor=none;align=center;verticalAlign=middle;whiteSpace=wrap;rounded=0;fontColor=#0000FF;fontStyle=1;fontSize=18;" vertex="1" parent="1">
                    <mxGeometry x="490" y="100" width="40" height="20" as="geometry"/>
                </mxCell>
                <mxCell id="86" value="4" style="text;html=1;strokeColor=none;fillColor=none;align=center;verticalAlign=middle;whiteSpace=wrap;rounded=0;fontColor=#0000FF;fontStyle=1;fontSize=18;" vertex="1" parent="1">
                    <mxGeometry x="540" y="100" width="40" height="20" as="geometry"/>
                </mxCell>
                <mxCell id="87" value="4" style="text;html=1;strokeColor=none;fillColor=none;align=center;verticalAlign=middle;whiteSpace=wrap;rounded=0;fontColor=#0000FF;fontStyle=1;fontSize=18;" vertex="1" parent="1">
                    <mxGeometry x="140" y="150" width="40" height="20" as="geometry"/>
                </mxCell>
                <mxCell id="88" value="10" style="text;html=1;strokeColor=none;fillColor=none;align=center;verticalAlign=middle;whiteSpace=wrap;rounded=0;fontColor=#0000FF;fontStyle=1;fontSize=18;" vertex="1" parent="1">
                    <mxGeometry x="190" y="150" width="40" height="20" as="geometry"/>
                </mxCell>
                <mxCell id="89" value="28" style="text;html=1;strokeColor=none;fillColor=none;align=center;verticalAlign=middle;whiteSpace=wrap;rounded=0;fontColor=#0000FF;fontStyle=1;fontSize=18;" vertex="1" parent="1">
                    <mxGeometry x="240" y="150" width="40" height="20" as="geometry"/>
                </mxCell>
                <mxCell id="90" value="16" style="text;html=1;strokeColor=none;fillColor=none;align=center;verticalAlign=middle;whiteSpace=wrap;rounded=0;fontColor=#0000FF;fontStyle=1;fontSize=18;" vertex="1" parent="1">
                    <mxGeometry x="290" y="150" width="40" height="20" as="geometry"/>
                </mxCell>
                <mxCell id="91" value="8" style="text;html=1;strokeColor=none;fillColor=none;align=center;verticalAlign=middle;whiteSpace=wrap;rounded=0;fontColor=#0000FF;fontStyle=1;fontSize=18;" vertex="1" parent="1">
                    <mxGeometry x="340" y="150" width="40" height="20" as="geometry"/>
                </mxCell>
                <mxCell id="92" value="16" style="text;html=1;strokeColor=none;fillColor=none;align=center;verticalAlign=middle;whiteSpace=wrap;rounded=0;fontColor=#0000FF;fontStyle=1;fontSize=18;" vertex="1" parent="1">
                    <mxGeometry x="390" y="150" width="40" height="20" as="geometry"/>
                </mxCell>
                <mxCell id="93" value="28" style="text;html=1;strokeColor=none;fillColor=none;align=center;verticalAlign=middle;whiteSpace=wrap;rounded=0;fontColor=#0000FF;fontStyle=1;fontSize=18;" vertex="1" parent="1">
                    <mxGeometry x="440" y="150" width="40" height="20" as="geometry"/>
                </mxCell>
                <mxCell id="94" value="10" style="text;html=1;strokeColor=none;fillColor=none;align=center;verticalAlign=middle;whiteSpace=wrap;rounded=0;fontColor=#0000FF;fontStyle=1;fontSize=18;" vertex="1" parent="1">
                    <mxGeometry x="490" y="150" width="40" height="20" as="geometry"/>
                </mxCell>
                <mxCell id="95" value="4" style="text;html=1;strokeColor=none;fillColor=none;align=center;verticalAlign=middle;whiteSpace=wrap;rounded=0;fontColor=#0000FF;fontStyle=1;fontSize=18;" vertex="1" parent="1">
                    <mxGeometry x="540" y="150" width="40" height="20" as="geometry"/>
                </mxCell>
                <mxCell id="96" value="12" style="text;html=1;strokeColor=none;fillColor=none;align=center;verticalAlign=middle;whiteSpace=wrap;rounded=0;fontColor=#0000FF;fontStyle=1;fontSize=18;" vertex="1" parent="1">
                    <mxGeometry x="140" y="200" width="40" height="20" as="geometry"/>
                </mxCell>
                <mxCell id="97" value="14" style="text;html=1;strokeColor=none;fillColor=none;align=center;verticalAlign=middle;whiteSpace=wrap;rounded=0;fontColor=#0000FF;fontStyle=1;fontSize=18;" vertex="1" parent="1">
                    <mxGeometry x="190" y="200" width="40" height="20" as="geometry"/>
                </mxCell>
                <mxCell id="98" value="16" style="text;html=1;strokeColor=none;fillColor=none;align=center;verticalAlign=middle;whiteSpace=wrap;rounded=0;fontColor=#0000FF;fontStyle=1;fontSize=18;" vertex="1" parent="1">
                    <mxGeometry x="240" y="200" width="40" height="20" as="geometry"/>
                </mxCell>
                <mxCell id="99" value="20" style="text;html=1;strokeColor=none;fillColor=none;align=center;verticalAlign=middle;whiteSpace=wrap;rounded=0;fontColor=#0000FF;fontStyle=1;fontSize=18;" vertex="1" parent="1">
                    <mxGeometry x="290" y="200" width="40" height="20" as="geometry"/>
                </mxCell>
                <mxCell id="100" value="18" style="text;html=1;strokeColor=none;fillColor=none;align=center;verticalAlign=middle;whiteSpace=wrap;rounded=0;fontColor=#0000FF;fontStyle=1;fontSize=18;" vertex="1" parent="1">
                    <mxGeometry x="340" y="200" width="40" height="20" as="geometry"/>
                </mxCell>
                <mxCell id="101" value="20" style="text;html=1;strokeColor=none;fillColor=none;align=center;verticalAlign=middle;whiteSpace=wrap;rounded=0;fontColor=#0000FF;fontStyle=1;fontSize=18;" vertex="1" parent="1">
                    <mxGeometry x="390" y="200" width="40" height="20" as="geometry"/>
                </mxCell>
                <mxCell id="102" value="16" style="text;html=1;strokeColor=none;fillColor=none;align=center;verticalAlign=middle;whiteSpace=wrap;rounded=0;fontColor=#0000FF;fontStyle=1;fontSize=18;" vertex="1" parent="1">
                    <mxGeometry x="440" y="200" width="40" height="20" as="geometry"/>
                </mxCell>
                <mxCell id="103" value="14" style="text;html=1;strokeColor=none;fillColor=none;align=center;verticalAlign=middle;whiteSpace=wrap;rounded=0;fontColor=#0000FF;fontStyle=1;fontSize=18;" vertex="1" parent="1">
                    <mxGeometry x="490" y="200" width="40" height="20" as="geometry"/>
                </mxCell>
                <mxCell id="104" value="12" style="text;html=1;strokeColor=none;fillColor=none;align=center;verticalAlign=middle;whiteSpace=wrap;rounded=0;fontColor=#0000FF;fontStyle=1;fontSize=18;" vertex="1" parent="1">
                    <mxGeometry x="540" y="200" width="40" height="20" as="geometry"/>
                </mxCell>
                <mxCell id="105" value="8" style="text;html=1;strokeColor=none;fillColor=none;align=center;verticalAlign=middle;whiteSpace=wrap;rounded=0;fontColor=#0000FF;fontStyle=1;fontSize=18;" vertex="1" parent="1">
                    <mxGeometry x="140" y="250" width="40" height="20" as="geometry"/>
                </mxCell>
                <mxCell id="106" value="24" style="text;html=1;strokeColor=none;fillColor=none;align=center;verticalAlign=middle;whiteSpace=wrap;rounded=0;fontColor=#0000FF;fontStyle=1;fontSize=18;" vertex="1" parent="1">
                    <mxGeometry x="190" y="250" width="40" height="20" as="geometry"/>
                </mxCell>
                <mxCell id="107" value="18" style="text;html=1;strokeColor=none;fillColor=none;align=center;verticalAlign=middle;whiteSpace=wrap;rounded=0;fontColor=#0000FF;fontStyle=1;fontSize=18;" vertex="1" parent="1">
                    <mxGeometry x="240" y="250" width="40" height="20" as="geometry"/>
                </mxCell>
                <mxCell id="108" value="24" style="text;html=1;strokeColor=none;fillColor=none;align=center;verticalAlign=middle;whiteSpace=wrap;rounded=0;fontColor=#0000FF;fontStyle=1;fontSize=18;" vertex="1" parent="1">
                    <mxGeometry x="290" y="250" width="40" height="20" as="geometry"/>
                </mxCell>
                <mxCell id="109" value="20" style="text;html=1;strokeColor=none;fillColor=none;align=center;verticalAlign=middle;whiteSpace=wrap;rounded=0;fontColor=#0000FF;fontStyle=1;fontSize=18;" vertex="1" parent="1">
                    <mxGeometry x="340" y="250" width="40" height="20" as="geometry"/>
                </mxCell>
                <mxCell id="110" value="24" style="text;html=1;strokeColor=none;fillColor=none;align=center;verticalAlign=middle;whiteSpace=wrap;rounded=0;fontColor=#0000FF;fontStyle=1;fontSize=18;" vertex="1" parent="1">
                    <mxGeometry x="390" y="250" width="40" height="20" as="geometry"/>
                </mxCell>
                <mxCell id="111" value="18" style="text;html=1;strokeColor=none;fillColor=none;align=center;verticalAlign=middle;whiteSpace=wrap;rounded=0;fontColor=#0000FF;fontStyle=1;fontSize=18;" vertex="1" parent="1">
                    <mxGeometry x="440" y="250" width="40" height="20" as="geometry"/>
                </mxCell>
                <mxCell id="112" value="24" style="text;html=1;strokeColor=none;fillColor=none;align=center;verticalAlign=middle;whiteSpace=wrap;rounded=0;fontColor=#0000FF;fontStyle=1;fontSize=18;" vertex="1" parent="1">
                    <mxGeometry x="490" y="250" width="40" height="20" as="geometry"/>
                </mxCell>
                <mxCell id="113" value="8" style="text;html=1;strokeColor=none;fillColor=none;align=center;verticalAlign=middle;whiteSpace=wrap;rounded=0;fontColor=#0000FF;fontStyle=1;fontSize=18;" vertex="1" parent="1">
                    <mxGeometry x="540" y="250" width="40" height="20" as="geometry"/>
                </mxCell>
                <mxCell id="123" value="6" style="text;html=1;strokeColor=none;fillColor=none;align=center;verticalAlign=middle;whiteSpace=wrap;rounded=0;fontColor=#0000FF;fontStyle=1;fontSize=18;" vertex="1" parent="1">
                    <mxGeometry x="140" y="300" width="40" height="20" as="geometry"/>
                </mxCell>
                <mxCell id="124" value="16" style="text;html=1;strokeColor=none;fillColor=none;align=center;verticalAlign=middle;whiteSpace=wrap;rounded=0;fontColor=#0000FF;fontStyle=1;fontSize=18;" vertex="1" parent="1">
                    <mxGeometry x="190" y="300" width="40" height="20" as="geometry"/>
                </mxCell>
                <mxCell id="125" value="14" style="text;html=1;strokeColor=none;fillColor=none;align=center;verticalAlign=middle;whiteSpace=wrap;rounded=0;fontColor=#0000FF;fontStyle=1;fontSize=18;" vertex="1" parent="1">
                    <mxGeometry x="240" y="300" width="40" height="20" as="geometry"/>
                </mxCell>
                <mxCell id="126" value="18" style="text;html=1;strokeColor=none;fillColor=none;align=center;verticalAlign=middle;whiteSpace=wrap;rounded=0;fontColor=#0000FF;fontStyle=1;fontSize=18;" vertex="1" parent="1">
                    <mxGeometry x="290" y="300" width="40" height="20" as="geometry"/>
                </mxCell>
                <mxCell id="127" value="16" style="text;html=1;strokeColor=none;fillColor=none;align=center;verticalAlign=middle;whiteSpace=wrap;rounded=0;fontColor=#0000FF;fontStyle=1;fontSize=18;" vertex="1" parent="1">
                    <mxGeometry x="340" y="300" width="40" height="20" as="geometry"/>
                </mxCell>
                <mxCell id="128" value="18" style="text;html=1;strokeColor=none;fillColor=none;align=center;verticalAlign=middle;whiteSpace=wrap;rounded=0;fontColor=#0000FF;fontStyle=1;fontSize=18;" vertex="1" parent="1">
                    <mxGeometry x="390" y="300" width="40" height="20" as="geometry"/>
                </mxCell>
                <mxCell id="129" value="14" style="text;html=1;strokeColor=none;fillColor=none;align=center;verticalAlign=middle;whiteSpace=wrap;rounded=0;fontColor=#0000FF;fontStyle=1;fontSize=18;" vertex="1" parent="1">
                    <mxGeometry x="440" y="300" width="40" height="20" as="geometry"/>
                </mxCell>
                <mxCell id="130" value="16" style="text;html=1;strokeColor=none;fillColor=none;align=center;verticalAlign=middle;whiteSpace=wrap;rounded=0;fontColor=#0000FF;fontStyle=1;fontSize=18;" vertex="1" parent="1">
                    <mxGeometry x="490" y="300" width="40" height="20" as="geometry"/>
                </mxCell>
                <mxCell id="131" value="6" style="text;html=1;strokeColor=none;fillColor=none;align=center;verticalAlign=middle;whiteSpace=wrap;rounded=0;fontColor=#0000FF;fontStyle=1;fontSize=18;" vertex="1" parent="1">
                    <mxGeometry x="540" y="300" width="40" height="20" as="geometry"/>
                </mxCell>
                <mxCell id="132" value="4" style="text;html=1;strokeColor=none;fillColor=none;align=center;verticalAlign=middle;whiteSpace=wrap;rounded=0;fontColor=#0000FF;fontStyle=1;fontSize=18;" vertex="1" parent="1">
                    <mxGeometry x="140" y="350" width="40" height="20" as="geometry"/>
                </mxCell>
                <mxCell id="133" value="12" style="text;html=1;strokeColor=none;fillColor=none;align=center;verticalAlign=middle;whiteSpace=wrap;rounded=0;fontColor=#0000FF;fontStyle=1;fontSize=18;" vertex="1" parent="1">
                    <mxGeometry x="190" y="350" width="40" height="20" as="geometry"/>
                </mxCell>
                <mxCell id="134" value="16" style="text;html=1;strokeColor=none;fillColor=none;align=center;verticalAlign=middle;whiteSpace=wrap;rounded=0;fontColor=#0000FF;fontStyle=1;fontSize=18;" vertex="1" parent="1">
                    <mxGeometry x="240" y="350" width="40" height="20" as="geometry"/>
                </mxCell>
                <mxCell id="135" value="14" style="text;html=1;strokeColor=none;fillColor=none;align=center;verticalAlign=middle;whiteSpace=wrap;rounded=0;fontColor=#0000FF;fontStyle=1;fontSize=18;" vertex="1" parent="1">
                    <mxGeometry x="290" y="350" width="40" height="20" as="geometry"/>
                </mxCell>
                <mxCell id="136" value="12" style="text;html=1;strokeColor=none;fillColor=none;align=center;verticalAlign=middle;whiteSpace=wrap;rounded=0;fontColor=#0000FF;fontStyle=1;fontSize=18;" vertex="1" parent="1">
                    <mxGeometry x="340" y="350" width="40" height="20" as="geometry"/>
                </mxCell>
                <mxCell id="137" value="14" style="text;html=1;strokeColor=none;fillColor=none;align=center;verticalAlign=middle;whiteSpace=wrap;rounded=0;fontColor=#0000FF;fontStyle=1;fontSize=18;" vertex="1" parent="1">
                    <mxGeometry x="390" y="350" width="40" height="20" as="geometry"/>
                </mxCell>
                <mxCell id="138" value="16" style="text;html=1;strokeColor=none;fillColor=none;align=center;verticalAlign=middle;whiteSpace=wrap;rounded=0;fontColor=#0000FF;fontStyle=1;fontSize=18;" vertex="1" parent="1">
                    <mxGeometry x="440" y="350" width="40" height="20" as="geometry"/>
                </mxCell>
                <mxCell id="139" value="12" style="text;html=1;strokeColor=none;fillColor=none;align=center;verticalAlign=middle;whiteSpace=wrap;rounded=0;fontColor=#0000FF;fontStyle=1;fontSize=18;" vertex="1" parent="1">
                    <mxGeometry x="490" y="350" width="40" height="20" as="geometry"/>
                </mxCell>
                <mxCell id="140" value="4" style="text;html=1;strokeColor=none;fillColor=none;align=center;verticalAlign=middle;whiteSpace=wrap;rounded=0;fontColor=#0000FF;fontStyle=1;fontSize=18;" vertex="1" parent="1">
                    <mxGeometry x="540" y="350" width="40" height="20" as="geometry"/>
                </mxCell>
                <mxCell id="141" value="2" style="text;html=1;strokeColor=none;fillColor=none;align=center;verticalAlign=middle;whiteSpace=wrap;rounded=0;fontColor=#0000FF;fontStyle=1;fontSize=18;" vertex="1" parent="1">
                    <mxGeometry x="140" y="400" width="40" height="20" as="geometry"/>
                </mxCell>
                <mxCell id="142" value="6" style="text;html=1;strokeColor=none;fillColor=none;align=center;verticalAlign=middle;whiteSpace=wrap;rounded=0;fontColor=#0000FF;fontStyle=1;fontSize=18;" vertex="1" parent="1">
                    <mxGeometry x="190" y="400" width="40" height="20" as="geometry"/>
                </mxCell>
                <mxCell id="143" value="8" style="text;html=1;strokeColor=none;fillColor=none;align=center;verticalAlign=middle;whiteSpace=wrap;rounded=0;fontColor=#0000FF;fontStyle=1;fontSize=18;" vertex="1" parent="1">
                    <mxGeometry x="240" y="400" width="40" height="20" as="geometry"/>
                </mxCell>
                <mxCell id="144" value="6" style="text;html=1;strokeColor=none;fillColor=none;align=center;verticalAlign=middle;whiteSpace=wrap;rounded=0;fontColor=#0000FF;fontStyle=1;fontSize=18;" vertex="1" parent="1">
                    <mxGeometry x="290" y="400" width="40" height="20" as="geometry"/>
                </mxCell>
                <mxCell id="145" value="10" style="text;html=1;strokeColor=none;fillColor=none;align=center;verticalAlign=middle;whiteSpace=wrap;rounded=0;fontColor=#0000FF;fontStyle=1;fontSize=18;" vertex="1" parent="1">
                    <mxGeometry x="340" y="400" width="40" height="20" as="geometry"/>
                </mxCell>
                <mxCell id="146" value="6" style="text;html=1;strokeColor=none;fillColor=none;align=center;verticalAlign=middle;whiteSpace=wrap;rounded=0;fontColor=#0000FF;fontStyle=1;fontSize=18;" vertex="1" parent="1">
                    <mxGeometry x="390" y="400" width="40" height="20" as="geometry"/>
                </mxCell>
                <mxCell id="147" value="8" style="text;html=1;strokeColor=none;fillColor=none;align=center;verticalAlign=middle;whiteSpace=wrap;rounded=0;fontColor=#0000FF;fontStyle=1;fontSize=18;" vertex="1" parent="1">
                    <mxGeometry x="440" y="400" width="40" height="20" as="geometry"/>
                </mxCell>
                <mxCell id="148" value="6" style="text;html=1;strokeColor=none;fillColor=none;align=center;verticalAlign=middle;whiteSpace=wrap;rounded=0;fontColor=#0000FF;fontStyle=1;fontSize=18;" vertex="1" parent="1">
                    <mxGeometry x="490" y="400" width="40" height="20" as="geometry"/>
                </mxCell>
                <mxCell id="149" value="2" style="text;html=1;strokeColor=none;fillColor=none;align=center;verticalAlign=middle;whiteSpace=wrap;rounded=0;fontColor=#0000FF;fontStyle=1;fontSize=18;" vertex="1" parent="1">
                    <mxGeometry x="540" y="400" width="40" height="20" as="geometry"/>
                </mxCell>
                <mxCell id="150" value="4" style="text;html=1;strokeColor=none;fillColor=none;align=center;verticalAlign=middle;whiteSpace=wrap;rounded=0;fontColor=#0000FF;fontStyle=1;fontSize=18;" vertex="1" parent="1">
                    <mxGeometry x="140" y="450" width="40" height="20" as="geometry"/>
                </mxCell>
                <mxCell id="151" value="2" style="text;html=1;strokeColor=none;fillColor=none;align=center;verticalAlign=middle;whiteSpace=wrap;rounded=0;fontColor=#0000FF;fontStyle=1;fontSize=18;" vertex="1" parent="1">
                    <mxGeometry x="190" y="450" width="40" height="20" as="geometry"/>
                </mxCell>
                <mxCell id="152" value="8" style="text;html=1;strokeColor=none;fillColor=none;align=center;verticalAlign=middle;whiteSpace=wrap;rounded=0;fontColor=#0000FF;fontStyle=1;fontSize=18;" vertex="1" parent="1">
                    <mxGeometry x="240" y="450" width="40" height="20" as="geometry"/>
                </mxCell>
                <mxCell id="153" value="8" style="text;html=1;strokeColor=none;fillColor=none;align=center;verticalAlign=middle;whiteSpace=wrap;rounded=0;fontColor=#0000FF;fontStyle=1;fontSize=18;" vertex="1" parent="1">
                    <mxGeometry x="290" y="450" width="40" height="20" as="geometry"/>
                </mxCell>
                <mxCell id="154" value="4" style="text;html=1;strokeColor=none;fillColor=none;align=center;verticalAlign=middle;whiteSpace=wrap;rounded=0;fontColor=#0000FF;fontStyle=1;fontSize=18;" vertex="1" parent="1">
                    <mxGeometry x="340" y="450" width="40" height="20" as="geometry"/>
                </mxCell>
                <mxCell id="155" value="8" style="text;html=1;strokeColor=none;fillColor=none;align=center;verticalAlign=middle;whiteSpace=wrap;rounded=0;fontColor=#0000FF;fontStyle=1;fontSize=18;" vertex="1" parent="1">
                    <mxGeometry x="390" y="450" width="40" height="20" as="geometry"/>
                </mxCell>
                <mxCell id="156" value="8" style="text;html=1;strokeColor=none;fillColor=none;align=center;verticalAlign=middle;whiteSpace=wrap;rounded=0;fontColor=#0000FF;fontStyle=1;fontSize=18;" vertex="1" parent="1">
                    <mxGeometry x="440" y="450" width="40" height="20" as="geometry"/>
                </mxCell>
                <mxCell id="157" value="2" style="text;html=1;strokeColor=none;fillColor=none;align=center;verticalAlign=middle;whiteSpace=wrap;rounded=0;fontColor=#0000FF;fontStyle=1;fontSize=18;" vertex="1" parent="1">
                    <mxGeometry x="490" y="450" width="40" height="20" as="geometry"/>
                </mxCell>
                <mxCell id="158" value="4" style="text;html=1;strokeColor=none;fillColor=none;align=center;verticalAlign=middle;whiteSpace=wrap;rounded=0;fontColor=#0000FF;fontStyle=1;fontSize=18;" vertex="1" parent="1">
                    <mxGeometry x="540" y="450" width="40" height="20" as="geometry"/>
                </mxCell>
                <mxCell id="159" value="0" style="text;html=1;strokeColor=none;fillColor=none;align=center;verticalAlign=middle;whiteSpace=wrap;rounded=0;fontColor=#0000FF;fontStyle=1;fontSize=18;" vertex="1" parent="1">
                    <mxGeometry x="140" y="500" width="40" height="20" as="geometry"/>
                </mxCell>
                <mxCell id="160" value="2" style="text;html=1;strokeColor=none;fillColor=none;align=center;verticalAlign=middle;whiteSpace=wrap;rounded=0;fontColor=#0000FF;fontStyle=1;fontSize=18;" vertex="1" parent="1">
                    <mxGeometry x="190" y="500" width="40" height="20" as="geometry"/>
                </mxCell>
                <mxCell id="161" value="4" style="text;html=1;strokeColor=none;fillColor=none;align=center;verticalAlign=middle;whiteSpace=wrap;rounded=0;fontColor=#0000FF;fontStyle=1;fontSize=18;" vertex="1" parent="1">
                    <mxGeometry x="240" y="500" width="40" height="20" as="geometry"/>
                </mxCell>
                <mxCell id="162" value="4" style="text;html=1;strokeColor=none;fillColor=none;align=center;verticalAlign=middle;whiteSpace=wrap;rounded=0;fontColor=#0000FF;fontStyle=1;fontSize=18;" vertex="1" parent="1">
                    <mxGeometry x="290" y="500" width="40" height="20" as="geometry"/>
                </mxCell>
                <mxCell id="163" value="-2" style="text;html=1;strokeColor=none;fillColor=none;align=center;verticalAlign=middle;whiteSpace=wrap;rounded=0;fontColor=#0000FF;fontStyle=1;fontSize=18;" vertex="1" parent="1">
                    <mxGeometry x="340" y="500" width="40" height="20" as="geometry"/>
                </mxCell>
                <mxCell id="164" value="4" style="text;html=1;strokeColor=none;fillColor=none;align=center;verticalAlign=middle;whiteSpace=wrap;rounded=0;fontColor=#0000FF;fontStyle=1;fontSize=18;" vertex="1" parent="1">
                    <mxGeometry x="390" y="500" width="40" height="20" as="geometry"/>
                </mxCell>
                <mxCell id="165" value="4" style="text;html=1;strokeColor=none;fillColor=none;align=center;verticalAlign=middle;whiteSpace=wrap;rounded=0;fontColor=#0000FF;fontStyle=1;fontSize=18;" vertex="1" parent="1">
                    <mxGeometry x="440" y="500" width="40" height="20" as="geometry"/>
                </mxCell>
                <mxCell id="166" value="2" style="text;html=1;strokeColor=none;fillColor=none;align=center;verticalAlign=middle;whiteSpace=wrap;rounded=0;fontColor=#0000FF;fontStyle=1;fontSize=18;" vertex="1" parent="1">
                    <mxGeometry x="490" y="500" width="40" height="20" as="geometry"/>
                </mxCell>
                <mxCell id="167" value="0" style="text;html=1;strokeColor=none;fillColor=none;align=center;verticalAlign=middle;whiteSpace=wrap;rounded=0;fontColor=#0000FF;fontStyle=1;fontSize=18;" vertex="1" parent="1">
                    <mxGeometry x="540" y="500" width="40" height="20" as="geometry"/>
                </mxCell>
                <mxCell id="168" value="0" style="text;html=1;strokeColor=none;fillColor=none;align=center;verticalAlign=middle;whiteSpace=wrap;rounded=0;fontColor=#0000FF;fontStyle=1;fontSize=18;" vertex="1" parent="1">
                    <mxGeometry x="140" y="550" width="40" height="20" as="geometry"/>
                </mxCell>
                <mxCell id="169" value="-4" style="text;html=1;strokeColor=none;fillColor=none;align=center;verticalAlign=middle;whiteSpace=wrap;rounded=0;fontColor=#0000FF;fontStyle=1;fontSize=18;" vertex="1" parent="1">
                    <mxGeometry x="190" y="550" width="40" height="20" as="geometry"/>
                </mxCell>
                <mxCell id="170" value="0" style="text;html=1;strokeColor=none;fillColor=none;align=center;verticalAlign=middle;whiteSpace=wrap;rounded=0;fontColor=#0000FF;fontStyle=1;fontSize=18;" vertex="1" parent="1">
                    <mxGeometry x="240" y="550" width="40" height="20" as="geometry"/>
                </mxCell>
                <mxCell id="171" value="0" style="text;html=1;strokeColor=none;fillColor=none;align=center;verticalAlign=middle;whiteSpace=wrap;rounded=0;fontColor=#0000FF;fontStyle=1;fontSize=18;" vertex="1" parent="1">
                    <mxGeometry x="290" y="550" width="40" height="20" as="geometry"/>
                </mxCell>
                <mxCell id="172" value="0" style="text;html=1;strokeColor=none;fillColor=none;align=center;verticalAlign=middle;whiteSpace=wrap;rounded=0;fontColor=#0000FF;fontStyle=1;fontSize=18;" vertex="1" parent="1">
                    <mxGeometry x="340" y="550" width="40" height="20" as="geometry"/>
                </mxCell>
                <mxCell id="173" value="0" style="text;html=1;strokeColor=none;fillColor=none;align=center;verticalAlign=middle;whiteSpace=wrap;rounded=0;fontColor=#0000FF;fontStyle=1;fontSize=18;" vertex="1" parent="1">
                    <mxGeometry x="390" y="550" width="40" height="20" as="geometry"/>
                </mxCell>
                <mxCell id="174" value="0" style="text;html=1;strokeColor=none;fillColor=none;align=center;verticalAlign=middle;whiteSpace=wrap;rounded=0;fontColor=#0000FF;fontStyle=1;fontSize=18;" vertex="1" parent="1">
                    <mxGeometry x="440" y="550" width="40" height="20" as="geometry"/>
                </mxCell>
                <mxCell id="175" value="-4" style="text;html=1;strokeColor=none;fillColor=none;align=center;verticalAlign=middle;whiteSpace=wrap;rounded=0;fontColor=#0000FF;fontStyle=1;fontSize=18;" vertex="1" parent="1">
                    <mxGeometry x="490" y="550" width="40" height="20" as="geometry"/>
                </mxCell>
                <mxCell id="176" value="0" style="text;html=1;strokeColor=none;fillColor=none;align=center;verticalAlign=middle;whiteSpace=wrap;rounded=0;fontColor=#0000FF;fontStyle=1;fontSize=18;" vertex="1" parent="1">
                    <mxGeometry x="540" y="550" width="40" height="20" as="geometry"/>
                </mxCell>
            </root>
        </mxGraphModel>
    </diagram>
</mxfile>